<?xml version="1.0" encoding="UTF-8"?>
<svg xmlns="http://www.w3.org/2000/svg" version="1.1" xmlns:xlink="http://www.w3.org/1999/xlink" viewBox="0 0 1198 318">
  <!-- Generator: Adobe Illustrator 30.6.0, SVG Export Plug-In . SVG Version: 2.1.4 Build 109)  -->
  <defs>
    <style>
      .st0 {
        fill: #7c7c82;
        font-size: 18px;
        letter-spacing: .11em;
      }

      .st0, .st1, .st2 {
        isolation: isolate;
      }

      .st0, .st2 {
        font-family: Inter-Medium, Inter;
        font-weight: 500;
      }

      .st1 {
        fill: #e6e6e9;
        font-family: SegoeUI-Bold, 'Segoe UI';
        font-size: 69px;
        font-weight: 700;
        letter-spacing: 0em;
      }

      .st3 {
        fill: #252527;
      }

      .st4 {
        fill: #473333;
      }

      .st5 {
        fill: url(#linear-gradient1);
      }

      .st5, .st6 {
        stroke: #3a3a3d;
        stroke-width: 2px;
      }

      .st6 {
        fill: url(#linear-gradient);
      }

      .st7 {
        fill: #f28f41;
      }

      .st2 {
        fill: #c9c9cc;
        font-size: 27px;
      }
    </style>
    <linearGradient id="linear-gradient" x1="293.25" y1="555.26" x2="293.25" y2="554.26" gradientTransform="translate(-350133 175462) scale(1196 -316)" gradientUnits="userSpaceOnUse">
      <stop offset="0" stop-color="#1e1e20"/>
      <stop offset="1" stop-color="#141415"/>
    </linearGradient>
    <linearGradient id="linear-gradient1" x1="293.6" x2="293.6" xlink:href="#linear-gradient"/>
  </defs>
  <g id="Layer_2">
    <rect class="st6" x="1" y="1" width="1196" height="316" rx="20" ry="20"/>
  </g>
  <g id="Layer_3">
    <g>
      <path class="st5" d="M1015.83,43.69c-63.58,0-115.31,51.73-115.31,115.31s51.73,115.31,115.31,115.31,115.31-51.73,115.31-115.31-51.73-115.31-115.31-115.31Z"/>
      <path class="st3" d="M1178.92,159c0-75.96-52.19-139.95-122.6-158h-80.98c-70.41,18.05-122.6,82.04-122.6,158s52.19,139.95,122.6,158h80.98c70.4-18.05,122.6-82.05,122.6-158ZM1015.83,274.31c-63.58,0-115.31-51.73-115.31-115.31s51.73-115.31,115.31-115.31,115.31,51.73,115.31,115.31-51.73,115.31-115.31,115.31Z"/>
    </g>
    <g>
      <path class="st4" d="M1006.29,92.19v-33.47c-47.89,4.39-86.19,42.43-90.95,90.21h33.76c4.6-29.27,27.84-52.37,57.19-56.74Z"/>
      <path class="st4" d="M948.94,169.07h-33.59c4.76,47.78,43.06,85.82,90.95,90.21v-32.41c-29.7-4.43-53.16-28.03-57.35-57.8Z"/>
    </g>
    <path class="st4" d="M1006.29,53.56V20.1c-68.91,4.93-124.13,59.99-129.32,128.83h33.21c4.8-50.62,45.38-90.95,96.11-95.37Z"/>
    <path class="st4" d="M910.18,169.07h-33.3c4.7,69.34,60.14,124.94,129.4,129.9v-34.52c-50.73-4.42-91.31-44.75-96.11-95.37Z"/>
    <g>
      <path class="st7" d="M1026.42,259.13c35.79-3.86,66-26.54,80.55-57.91h-32.11c8.4-11.77,13.34-26.16,13.34-41.69s-4.95-29.92-13.34-41.69h32.59c-14.35-31.92-44.84-55.07-81.03-58.97v29.43c-3.32-.47-6.71-.72-10.16-.72-39.67,0-71.95,32.27-71.95,71.95s32.27,71.95,71.95,71.95c3.45,0,6.84-.25,10.16-.72v28.37ZM1005.05,94.5c-2.69,3.65-5.12,8.71-7.22,15.12-1.44,4.38-2.66,9.23-3.66,14.43h-16.67c6.17-14.47,15.99-25.25,27.55-29.55ZM991.04,157.1h-20.44c.25-10.12,2.03-19.67,5.01-28.18h17.71c-1.38,8.73-2.16,18.28-2.27,28.18ZM993.31,190.14h-17.71c-2.98-8.5-4.76-18.06-5.01-28.18h20.44c.11,9.9.89,19.45,2.27,28.18ZM990.37,97.65c-3.66,3.11-7.07,6.9-10.15,11.34-3.16,4.56-5.83,9.62-8,15.06h-12.87c7.32-11.7,18.15-21,31.01-26.4ZM956.59,128.92h13.87c-2.88,8.74-4.5,18.29-4.73,28.18h-16.49c.36-10.12,2.97-19.67,7.35-28.18ZM949.23,161.97h16.49c.23,9.89,1.85,19.44,4.73,28.18h-13.87c-4.38-8.5-6.99-18.06-7.35-28.18ZM959.36,195.01h12.87c2.17,5.44,4.84,10.5,8,15.06,3.07,4.44,6.48,8.23,10.15,11.34-12.86-5.4-23.69-14.7-31.01-26.4ZM977.5,195.01h16.67c1,5.2,2.22,10.05,3.66,14.43,2.1,6.41,4.53,11.47,7.22,15.12-11.56-4.3-21.38-15.08-27.55-29.55ZM1013.83,226.03c-5.62-2.6-11.27-13.94-14.69-31.03h14.69v31.03ZM1013.83,190.14h-15.58c-1.37-8.33-2.23-17.82-2.34-28.18h17.92v28.18ZM1013.83,157.1h-17.92c.12-10.36.97-19.84,2.34-28.18h15.58v28.18ZM1013.83,124.05h-14.69c3.42-17.09,9.07-28.43,14.69-31.03v31.03ZM1060.3,195.01h12.87c-7.32,11.7-18.15,21-31.01,26.4,3.66-3.11,7.07-6.9,10.15-11.34,3.16-4.56,5.83-9.62,8-15.06ZM1056.92,190.14h-17.71c1.38-8.73,2.16-18.28,2.27-28.18h20.44c-.25,10.12-2.03,19.67-5.01,28.18ZM1041.48,157.1c-.11-9.9-.89-19.45-2.27-28.18h17.71c2.98,8.5,4.76,18.06,5.01,28.18h-20.44ZM1060.3,124.05c-2.17-5.44-4.84-10.5-8-15.06-3.07-4.44-6.48-8.23-10.15-11.34,12.86,5.4,23.69,14.69,31.01,26.4h-12.87ZM1055.03,124.05h-16.67c-1-5.2-2.22-10.05-3.66-14.43-2.1-6.41-4.53-11.47-7.22-15.12,11.56,4.3,21.38,15.08,27.55,29.55ZM1055.03,195.01c-6.17,14.47-15.99,25.26-27.55,29.55,2.69-3.65,5.12-8.71,7.22-15.12,1.44-4.38,2.66-9.23,3.66-14.43h16.67ZM1075.94,190.14h-13.87c2.88-8.74,4.5-18.29,4.73-28.18h16.49c-.36,10.12-2.97,19.67-7.35,28.18ZM1083.29,157.1h-16.49c-.23-9.89-1.85-19.44-4.73-28.18h13.87c4.38,8.5,6.99,18.06,7.35,28.18ZM1018.7,93.03c5.62,2.6,11.27,13.94,14.69,31.03h-14.69v-31.03ZM1018.7,128.92h15.58c1.37,8.33,2.23,17.82,2.34,28.18h-17.92v-28.18ZM1018.7,161.97h17.92c-.12,10.36-.97,19.84-2.34,28.18h-15.58v-28.18ZM1018.7,226.03v-31.03h14.69c-3.42,17.09-9.07,28.43-14.69,31.03Z"/>
      <path class="st7" d="M1113.1,117.84h36.74c-16.82-53.73-65.25-93.6-123.42-97.76v33.61c39.08,4,71.93,29.35,86.68,64.16Z"/>
      <path class="st7" d="M1026.42,264.31v34.67c58.16-4.16,106.6-44.03,123.42-97.76h-37.22c-14.96,34.26-47.52,59.13-86.19,63.09Z"/>
    </g>
    <path class="st3" d="M805.08,159c0-62.85,27.66-119.35,71.44-158h-59.95c-35.65,44.79-55.02,99.9-55.02,158s19.37,113.21,55.02,158h59.95c-43.78-38.65-71.44-95.15-71.44-158Z"/>
    <g>
      <path class="st3" d="M1197,51.44v-30.44c0-11.05-8.95-20-20-20h-21.86c16.43,14.5,30.58,31.51,41.86,50.44Z"/>
      <path class="st3" d="M1155.14,317h21.86c11.05,0,20-8.95,20-20v-30.44c-11.28,18.92-25.43,35.93-41.86,50.44Z"/>
    </g>
  </g>
  <g id="Layer_1">
    <text class="st1" transform="translate(77 187)"><tspan x="0" y="0">CraftKit</tspan></text>
    <text class="st2" transform="translate(81 237)"><tspan x="0" y="0">Smart resize, batch processing &amp; prompt control for LoRA workflows</tspan></text>
    <text class="st0" transform="translate(81 279)"><tspan x="0" y="0">SMART RESIZE · BATCH RESIZE · RESOLUTION · PROMPT CONTROLLER</tspan></text>
  </g>
</svg>